HIERARCHY
ROOT root
{
	OFFSET 0.000000 0.000000 0.000000
	CHANNELS 6 Xposition Yposition Zposition Zrotation Yrotation Xrotation
	JOINT lhip
	{
		OFFSET 0.058581 -0.082280 -0.017664
		CHANNELS 3 Zrotation Yrotation Xrotation
		JOINT lknee
		{
			OFFSET 0.043451 -0.386469 0.008037
			CHANNELS 3 Zrotation Yrotation Xrotation
			JOINT lankle
			{
				OFFSET -0.014790 -0.426874 -0.037428
				CHANNELS 3 Zrotation Yrotation Xrotation
				JOINT ltoe
				{
					OFFSET 0.041054 -0.060286 0.122042
					CHANNELS 3 Zrotation Yrotation Xrotation
					End Site
					{
						OFFSET 0.000000 0.000000 0.000000
					}
				}
			}
		}
	}
	JOINT rhip
	{
		OFFSET -0.060310 -0.090513 -0.013543
		CHANNELS 3 Zrotation Yrotation Xrotation
		JOINT rknee
		{
			OFFSET -0.043257 -0.383688 -0.004843
			CHANNELS 3 Zrotation Yrotation Xrotation
			JOINT rankle
			{
				OFFSET 0.019056 -0.420046 -0.034562
				CHANNELS 3 Zrotation Yrotation Xrotation
				JOINT rtoe
				{
					OFFSET -0.034840 -0.062106 0.130323
					CHANNELS 3 Zrotation Yrotation Xrotation
					End Site
					{
						OFFSET 0.000000 0.000000 0.000000
					}
				}
			}
		}
	}
	JOINT lowerback
	{
		OFFSET 0.004439 0.124404 -0.038385
		CHANNELS 3 Zrotation Yrotation Xrotation
		JOINT upperback
		{
			OFFSET 0.004488 0.137956 0.026820
			CHANNELS 3 Zrotation Yrotation Xrotation
			JOINT chest
			{
				OFFSET -0.002265 0.056032 0.002855
				CHANNELS 3 Zrotation Yrotation Xrotation
				JOINT lowerneck
				{
					OFFSET -0.013390 0.211636 -0.033468
					CHANNELS 3 Zrotation Yrotation Xrotation
					JOINT upperneck
					{
						OFFSET 0.010113 0.088937 0.050410
						CHANNELS 3 Zrotation Yrotation Xrotation
						End Site
						{
							OFFSET 0.000000 0.000000 0.000000
						}
					}
				}
				JOINT lclavicle
				{
					OFFSET 0.071702 0.114000 -0.018898
					CHANNELS 3 Zrotation Yrotation Xrotation
					JOINT lshoulder
					{
						OFFSET 0.122921 0.045205 -0.019046
						CHANNELS 3 Zrotation Yrotation Xrotation
						JOINT lelbow
						{
							OFFSET 0.255332 -0.015649 -0.022946
							CHANNELS 3 Zrotation Yrotation Xrotation
							JOINT lwrist
							{
								OFFSET 0.265709 0.012698 -0.007375
								CHANNELS 3 Zrotation Yrotation Xrotation
								End Site
								{
									OFFSET 0.000000 0.000000 0.000000
								}
							}
						}
					}
				}
				JOINT rclavicle
				{
					OFFSET -0.082954 0.112472 -0.023707
					CHANNELS 3 Zrotation Yrotation Xrotation
					JOINT rshoulder
					{
						OFFSET -0.113228 0.046853 -0.008472
						CHANNELS 3 Zrotation Yrotation Xrotation
						JOINT relbow
						{
							OFFSET -0.260127 -0.014369 -0.031269
							CHANNELS 3 Zrotation Yrotation Xrotation
							JOINT rwrist
							{
								OFFSET -0.269108 0.006794 -0.006027
								CHANNELS 3 Zrotation Yrotation Xrotation
								End Site
								{
									OFFSET 0.000000 0.000000 0.000000
								}
							}
						}
					}
				}
			}
		}
	}
}
MOTION
Frames: 7
Frame Time: 0.033333
0.107656 0.283410 1.032076 84.348107 -3.819912 92.223804 -1.278005 -9.454736 -24.313016 -0.588132 3.421915 8.019533 3.400686 12.392961 -0.957240 0.000000 -0.000000 0.000000 -1.061921 -3.595658 18.728068 -4.388195 9.090383 48.792449 11.063580 -10.060021 23.788064 0.000000 -0.000000 0.000000 -4.974399 8.443296 10.471345 -1.213538 -1.267049 1.237962 -0.898802 1.510563 2.723694 0.244601 -5.778727 -17.828569 3.931056 5.244022 -2.287621 -30.662469 12.240346 -0.617562 -51.545583 5.877442 11.634231 -169.865107 -79.912579 -175.622125 31.757501 -11.376158 -12.389946 26.128983 -0.200117 -3.262157 50.172332 2.690229 21.984280 -148.754801 80.459155 -137.118099 -23.178849 22.822183 -2.171656 
0.228944 0.284979 1.008319 86.876782 -4.878314 91.184839 -4.051030 -11.222982 -20.351751 -3.176076 3.786839 11.423376 7.268320 12.260065 -4.042670 0.000000 -0.000000 0.000000 -0.751191 -1.832485 13.295066 -3.252083 4.194579 66.857569 8.575168 -10.864573 21.267143 0.000000 -0.000000 0.000000 -6.634332 6.827870 11.374489 -0.985440 -1.642213 1.543721 -1.216896 0.589146 2.327806 0.589764 -5.420813 -16.028967 4.302246 5.246589 -3.776938 -31.208640 8.197951 -0.268037 -49.872176 1.529126 12.841259 169.609074 -79.800122 -157.806930 28.326178 -12.947976 -11.742782 26.864230 -0.919465 -2.758264 51.204820 -1.847514 21.857454 -101.604165 82.067978 -92.405117 -20.633163 20.856025 0.447050 
0.349989 0.287833 0.975346 90.938692 -4.845185 89.166285 -6.574562 -11.364579 -18.143277 -5.830132 1.103927 26.065852 15.919674 15.475012 -19.925258 0.000000 -0.000000 0.000000 -0.604781 -2.397777 7.332923 -2.573924 0.279993 83.984641 6.863706 -14.080083 16.965179 0.000000 -0.000000 0.000000 -6.809934 4.730878 14.210843 -0.292513 -2.848124 -0.172281 -1.448894 -0.657542 3.272144 0.687529 -6.673373 -15.163264 4.519669 6.781501 -2.600384 -31.724048 3.639998 0.097232 -48.043579 -4.894808 13.091768 163.657320 -77.786200 -151.216478 29.580225 -12.063576 -13.115728 27.198777 -1.420553 -2.602270 51.636014 -6.968458 21.066337 -66.744718 78.114578 -57.635625 -19.037733 22.341365 1.962248 
0.463394 0.292200 0.949361 95.008831 -4.176301 87.140185 -8.105195 -9.937734 -13.118425 -6.756342 -1.409606 35.095225 17.496112 17.987355 -30.257646 0.000000 -0.000000 0.000000 -0.322236 -2.371786 -1.893157 -2.859662 -2.634838 98.083159 5.424722 -16.389994 14.052862 0.000000 -0.000000 0.000000 -6.280221 2.182744 19.047651 0.377428 -3.736638 -1.925033 -1.577049 -1.992426 4.282323 1.141963 -5.532345 -17.750977 4.625143 5.822042 -1.562593 -32.252864 -1.278838 -1.595193 -46.930227 -13.206758 13.817192 159.224972 -75.717733 -146.275330 31.488040 -13.228646 -12.824329 28.576654 -2.479247 -3.373901 51.160712 -10.650903 19.812210 -54.778927 73.061981 -45.474252 -18.564804 23.599251 5.047584 
0.547721 0.294117 0.944331 97.708474 -3.094611 85.752131 -7.677058 -7.104296 -6.177165 -7.563974 -5.197856 36.639888 15.396487 17.939355 -34.344948 0.000000 -0.000000 0.000000 -0.389522 -2.274815 -9.519708 -3.490369 -4.454534 103.561631 2.949622 -16.670974 11.333518 0.000000 -0.000000 0.000000 -5.110455 0.254657 22.322123 0.722095 -4.118902 -2.106587 -1.362034 -3.326105 3.916498 0.415490 -5.003223 -18.331470 5.081712 5.460420 -3.168753 -32.257205 -5.102224 -2.586519 -46.561032 -19.611076 13.321019 157.844843 -74.603591 -144.983947 30.852458 -13.029913 -11.014495 28.999651 -2.875459 -3.446582 51.469316 -13.669188 17.764176 -51.472616 71.023119 -41.248264 -18.696633 23.789570 5.614503 
0.696379 0.295460 0.955985 101.350088 -0.710811 85.361722 -2.906751 0.163802 6.429271 -7.649773 -14.183562 32.527362 9.303991 12.942488 -32.996196 0.000000 -0.000000 0.000000 -0.557088 -1.622152 -21.821691 -5.700065 -7.222056 102.502106 4.280670 -15.841686 5.645986 0.000000 -0.000000 0.000000 -3.775639 -6.241814 23.658000 1.188687 -3.721803 -2.959781 -0.680309 -4.887083 3.146984 -1.277384 -2.848002 -16.645234 4.645170 6.484763 -3.064360 -30.148677 -7.307204 -2.596370 -49.234436 -26.562756 11.984119 155.530652 -71.843297 -139.192965 29.437449 -15.444411 -11.623611 27.394019 -4.733093 -2.166495 52.946569 -16.712814 14.937155 -44.681958 72.282740 -34.178324 -19.715340 22.724464 3.008981 
0.819175 0.297510 0.981012 104.266195 0.992151 86.434298 2.914050 2.131389 15.587216 -6.911588 -19.085408 25.560579 2.397433 8.550630 -22.318103 0.000000 -0.000000 0.000000 -1.867592 -0.939941 -28.614796 -6.447500 -11.248613 92.695380 6.403209 -13.883914 3.075815 0.000000 -0.000000 0.000000 -2.426987 -11.340156 22.300892 2.032447 -3.756424 -2.803384 0.083879 -6.351564 2.153670 -2.456598 -1.376708 -16.189929 3.396727 8.138895 -2.124478 -29.135584 -6.532396 -3.449399 -52.472534 -28.343221 13.795940 156.947631 -68.736812 -140.568833 29.593927 -12.611128 -14.016092 26.188536 -6.773749 -1.934113 51.835843 -18.326118 14.877308 -39.017755 75.090077 -29.058284 -18.919702 21.370903 2.115488 
